<mxfile host="Electron" agent="Mozilla/5.0 (Windows NT 10.0; Win64; x64) AppleWebKit/537.36 (KHTML, like Gecko) draw.io/24.7.8 Chrome/128.0.6613.36 Electron/32.0.1 Safari/537.36" version="24.7.8">
  <diagram name="Page-1" id="4sY_aa0datEfAPFKrzQs">
    <mxGraphModel dx="1434" dy="836" grid="1" gridSize="10" guides="1" tooltips="1" connect="1" arrows="1" fold="1" page="1" pageScale="1" pageWidth="850" pageHeight="1100" math="0" shadow="0">
      <root>
        <mxCell id="0" />
        <mxCell id="1" parent="0" />
        <mxCell id="FGx2FoZyLpzHTqzDZaKF-2" value="" style="rounded=0;whiteSpace=wrap;html=1;" vertex="1" parent="1">
          <mxGeometry x="40" y="40" width="300" height="680" as="geometry" />
        </mxCell>
        <mxCell id="FGx2FoZyLpzHTqzDZaKF-3" value="" style="rounded=0;whiteSpace=wrap;html=1;" vertex="1" parent="1">
          <mxGeometry x="360" y="40" width="300" height="680" as="geometry" />
        </mxCell>
        <mxCell id="FGx2FoZyLpzHTqzDZaKF-4" value="" style="rounded=0;whiteSpace=wrap;html=1;" vertex="1" parent="1">
          <mxGeometry x="680" y="40" width="300" height="680" as="geometry" />
        </mxCell>
        <mxCell id="FGx2FoZyLpzHTqzDZaKF-5" value="" style="rounded=0;whiteSpace=wrap;html=1;" vertex="1" parent="1">
          <mxGeometry x="1000" y="40" width="300" height="680" as="geometry" />
        </mxCell>
        <mxCell id="FGx2FoZyLpzHTqzDZaKF-6" value="App Title" style="rounded=0;whiteSpace=wrap;html=1;" vertex="1" parent="1">
          <mxGeometry x="70" y="70" width="250" height="60" as="geometry" />
        </mxCell>
        <mxCell id="FGx2FoZyLpzHTqzDZaKF-7" value="Stock Image (recipes)" style="rounded=0;whiteSpace=wrap;html=1;" vertex="1" parent="1">
          <mxGeometry x="70" y="190" width="250" height="280" as="geometry" />
        </mxCell>
        <mxCell id="FGx2FoZyLpzHTqzDZaKF-8" value="Button / Go To Recipes" style="rounded=0;whiteSpace=wrap;html=1;" vertex="1" parent="1">
          <mxGeometry x="70" y="580" width="250" height="60" as="geometry" />
        </mxCell>
        <mxCell id="FGx2FoZyLpzHTqzDZaKF-9" value="Main Screen" style="text;html=1;align=center;verticalAlign=middle;resizable=0;points=[];autosize=1;strokeColor=none;fillColor=none;" vertex="1" parent="1">
          <mxGeometry x="145" y="10" width="90" height="30" as="geometry" />
        </mxCell>
        <mxCell id="FGx2FoZyLpzHTqzDZaKF-10" value="Recipes Screen" style="text;html=1;align=center;verticalAlign=middle;resizable=0;points=[];autosize=1;strokeColor=none;fillColor=none;" vertex="1" parent="1">
          <mxGeometry x="455" y="10" width="110" height="30" as="geometry" />
        </mxCell>
        <mxCell id="FGx2FoZyLpzHTqzDZaKF-11" value="" style="rounded=0;whiteSpace=wrap;html=1;" vertex="1" parent="1">
          <mxGeometry x="380" y="70" width="260" height="400" as="geometry" />
        </mxCell>
        <mxCell id="FGx2FoZyLpzHTqzDZaKF-12" value="Add Recipe Button" style="rounded=0;whiteSpace=wrap;html=1;" vertex="1" parent="1">
          <mxGeometry x="380" y="580" width="120" height="60" as="geometry" />
        </mxCell>
        <mxCell id="FGx2FoZyLpzHTqzDZaKF-13" value="Go to Home Screen" style="rounded=0;whiteSpace=wrap;html=1;" vertex="1" parent="1">
          <mxGeometry x="520" y="580" width="120" height="60" as="geometry" />
        </mxCell>
        <mxCell id="FGx2FoZyLpzHTqzDZaKF-14" value="Recipe name 1" style="rounded=0;whiteSpace=wrap;html=1;" vertex="1" parent="1">
          <mxGeometry x="390" y="80" width="240" height="60" as="geometry" />
        </mxCell>
        <mxCell id="FGx2FoZyLpzHTqzDZaKF-15" value="Recipe name 2" style="rounded=0;whiteSpace=wrap;html=1;" vertex="1" parent="1">
          <mxGeometry x="390" y="150" width="240" height="60" as="geometry" />
        </mxCell>
        <mxCell id="FGx2FoZyLpzHTqzDZaKF-16" value="Recipe name 3" style="rounded=0;whiteSpace=wrap;html=1;" vertex="1" parent="1">
          <mxGeometry x="390" y="220" width="240" height="60" as="geometry" />
        </mxCell>
        <mxCell id="FGx2FoZyLpzHTqzDZaKF-17" value="Recipe name 4" style="rounded=0;whiteSpace=wrap;html=1;" vertex="1" parent="1">
          <mxGeometry x="390" y="290" width="240" height="60" as="geometry" />
        </mxCell>
        <mxCell id="FGx2FoZyLpzHTqzDZaKF-18" value="Recipe name 5" style="rounded=0;whiteSpace=wrap;html=1;" vertex="1" parent="1">
          <mxGeometry x="390" y="360" width="240" height="60" as="geometry" />
        </mxCell>
        <mxCell id="FGx2FoZyLpzHTqzDZaKF-19" value="View" style="rounded=0;whiteSpace=wrap;html=1;" vertex="1" parent="1">
          <mxGeometry x="390" y="400" width="100" height="20" as="geometry" />
        </mxCell>
        <mxCell id="FGx2FoZyLpzHTqzDZaKF-20" value="Delete" style="rounded=0;whiteSpace=wrap;html=1;" vertex="1" parent="1">
          <mxGeometry x="530" y="400" width="100" height="20" as="geometry" />
        </mxCell>
        <mxCell id="FGx2FoZyLpzHTqzDZaKF-21" value="View" style="rounded=0;whiteSpace=wrap;html=1;" vertex="1" parent="1">
          <mxGeometry x="390" y="120" width="100" height="20" as="geometry" />
        </mxCell>
        <mxCell id="FGx2FoZyLpzHTqzDZaKF-22" value="Delete" style="rounded=0;whiteSpace=wrap;html=1;" vertex="1" parent="1">
          <mxGeometry x="530" y="120" width="100" height="20" as="geometry" />
        </mxCell>
        <mxCell id="FGx2FoZyLpzHTqzDZaKF-23" value="View" style="rounded=0;whiteSpace=wrap;html=1;" vertex="1" parent="1">
          <mxGeometry x="390" y="190" width="100" height="20" as="geometry" />
        </mxCell>
        <mxCell id="FGx2FoZyLpzHTqzDZaKF-24" value="Delete" style="rounded=0;whiteSpace=wrap;html=1;" vertex="1" parent="1">
          <mxGeometry x="530" y="190" width="100" height="20" as="geometry" />
        </mxCell>
        <mxCell id="FGx2FoZyLpzHTqzDZaKF-25" value="View" style="rounded=0;whiteSpace=wrap;html=1;" vertex="1" parent="1">
          <mxGeometry x="390" y="260" width="100" height="20" as="geometry" />
        </mxCell>
        <mxCell id="FGx2FoZyLpzHTqzDZaKF-26" value="Delete" style="rounded=0;whiteSpace=wrap;html=1;" vertex="1" parent="1">
          <mxGeometry x="530" y="260" width="100" height="20" as="geometry" />
        </mxCell>
        <mxCell id="FGx2FoZyLpzHTqzDZaKF-27" value="View" style="rounded=0;whiteSpace=wrap;html=1;" vertex="1" parent="1">
          <mxGeometry x="390" y="330" width="100" height="20" as="geometry" />
        </mxCell>
        <mxCell id="FGx2FoZyLpzHTqzDZaKF-28" value="Delete" style="rounded=0;whiteSpace=wrap;html=1;" vertex="1" parent="1">
          <mxGeometry x="530" y="330" width="100" height="20" as="geometry" />
        </mxCell>
        <mxCell id="FGx2FoZyLpzHTqzDZaKF-29" value="Modal Screen" style="text;html=1;align=center;verticalAlign=middle;resizable=0;points=[];autosize=1;strokeColor=none;fillColor=none;" vertex="1" parent="1">
          <mxGeometry x="780" y="10" width="100" height="30" as="geometry" />
        </mxCell>
        <mxCell id="FGx2FoZyLpzHTqzDZaKF-30" value="Recipe Title&lt;div&gt;&lt;br&gt;&lt;/div&gt;&lt;div&gt;Recipe Text&amp;nbsp;&lt;/div&gt;&lt;div&gt;and&amp;nbsp;&lt;/div&gt;&lt;div&gt;Instructions&lt;/div&gt;&lt;div&gt;&lt;br&gt;&lt;/div&gt;" style="rounded=0;whiteSpace=wrap;html=1;" vertex="1" parent="1">
          <mxGeometry x="700" y="70" width="260" height="490" as="geometry" />
        </mxCell>
        <mxCell id="FGx2FoZyLpzHTqzDZaKF-31" value="Button / Return To Recipes" style="rounded=0;whiteSpace=wrap;html=1;" vertex="1" parent="1">
          <mxGeometry x="700" y="580" width="250" height="60" as="geometry" />
        </mxCell>
        <mxCell id="FGx2FoZyLpzHTqzDZaKF-33" value="Add Recipe Screen" style="text;html=1;align=center;verticalAlign=middle;resizable=0;points=[];autosize=1;strokeColor=none;fillColor=none;" vertex="1" parent="1">
          <mxGeometry x="1085" y="10" width="130" height="30" as="geometry" />
        </mxCell>
        <mxCell id="FGx2FoZyLpzHTqzDZaKF-35" value="Enter Recipe Title Here" style="rounded=0;whiteSpace=wrap;html=1;" vertex="1" parent="1">
          <mxGeometry x="1010" y="190" width="280" height="60" as="geometry" />
        </mxCell>
        <mxCell id="FGx2FoZyLpzHTqzDZaKF-36" value="Enter Recipe Instructions here" style="rounded=0;whiteSpace=wrap;html=1;" vertex="1" parent="1">
          <mxGeometry x="1010" y="260" width="280" height="300" as="geometry" />
        </mxCell>
        <mxCell id="FGx2FoZyLpzHTqzDZaKF-37" value="Save Recipe" style="rounded=0;whiteSpace=wrap;html=1;" vertex="1" parent="1">
          <mxGeometry x="1015" y="580" width="120" height="60" as="geometry" />
        </mxCell>
        <mxCell id="FGx2FoZyLpzHTqzDZaKF-38" value="Cancel Entry" style="rounded=0;whiteSpace=wrap;html=1;" vertex="1" parent="1">
          <mxGeometry x="1155" y="580" width="120" height="60" as="geometry" />
        </mxCell>
        <mxCell id="FGx2FoZyLpzHTqzDZaKF-39" value="Add New Recipes (title)" style="rounded=0;whiteSpace=wrap;html=1;" vertex="1" parent="1">
          <mxGeometry x="1010" y="70" width="280" height="60" as="geometry" />
        </mxCell>
      </root>
    </mxGraphModel>
  </diagram>
</mxfile>
